<?xml version="1.0" encoding="UTF-8"?>
<svg width="36px" height="6px" viewBox="0 0 36 6" version="1.1" xmlns="http://www.w3.org/2000/svg" xmlns:xlink="http://www.w3.org/1999/xlink">
    <!-- Generator: sketchtool 51.3 (57544) - http://www.bohemiancoding.com/sketch -->
    <title>FE1A8772-12EB-48F3-AA0E-30C97B998A82</title>
    <desc>Created with sketchtool.</desc>
    <defs></defs>
    <g id="Page-1" stroke="none" stroke-width="1" fill="none" fill-rule="evenodd">
        <g id="home1" transform="translate(-987.000000, -4430.000000)" fill="#808080">
            <g id="Group-2" transform="translate(0.000000, 4415.000000)">
                <path d="M987.854943,19.1372272 L1004.61228,15 L1021.36962,19.1372272 C1021.87176,19.2611994 1022.22457,19.7117071 1022.22457,20.2289187 L1022.22457,20.2289187 C1022.22457,20.6097968 1021.9158,20.9185596 1021.53493,20.9185596 C1021.47922,20.9185596 1021.42371,20.911809 1021.36962,20.8984556 L1004.61228,16.7612284 L987.854943,20.8984556 C987.485168,20.9897495 987.111398,20.763996 987.020104,20.394221 C987.006751,20.3401345 987,20.2846292 987,20.2289187 L987,20.2289187 C987,19.7117071 987.352809,19.2611994 987.854943,19.1372272 Z" id="close" transform="translate(1004.612284, 17.959361) scale(1, -1) translate(-1004.612284, -17.959361) "></path>
            </g>
        </g>
    </g>
</svg>