<?xml version="1.0" standalone="yes"?><svg xmlns="http://www.w3.org/2000/svg" width="511" height="365" viewBox="0 0 511 365" fill="none" style="zoom: 1;"><g id="EW"><g id="Group 2"><path id="Path" fill-rule="evenodd" clip-rule="evenodd" d="M245.067 144.138L203.044 196.494L172.279 190.598L103.334 185.263C94.5611 178.29 85.7068 169.468 76.9958 159.049L133.809 165.506L66.334 145.398C60.4723 137.388 54.7212 128.676 49.1529 119.345L135.069 145.129L42.4686 107.682C34.9484 94.0249 27.8385 79.2316 21.3329 63.5204L153.105 126.704L16.6187 51.6951C14.7064 46.709 12.8563 41.6406 11.0741 36.4963C6.80961 24.1871 3.12068 11.9827 0 0L172.412 104.411L245.067 144.138Z" fill="#BF3C3C"></path><path id="Path_2" fill-rule="evenodd" clip-rule="evenodd" d="M299.374 202.192L308.951 214.123L273.208 207.272L299.374 202.192V202.192Z" fill="black"></path><path id="Path_3" fill-rule="evenodd" clip-rule="evenodd" d="M462.285 106.26L218.669 189.753L229.772 175.92L483.338 61.7705L482.641 63.5206C476.36 78.6878 469.517 92.9996 462.285 106.26V106.26Z" fill="white"></path><path id="Path_4" fill-rule="evenodd" clip-rule="evenodd" d="M437.639 145.398L370.164 165.506L426.977 159.049C418.266 169.468 409.412 178.29 400.639 185.263L329.971 190.598L197.316 216.354L215.409 193.813L453.847 120.967C448.582 129.687 443.16 137.854 437.639 145.398Z" fill="black"></path><path id="Path_5" fill-rule="evenodd" clip-rule="evenodd" d="M488.72 48.094L234.345 170.223L252.446 147.67L331.562 104.411L503.974 0C500.853 11.9827 497.164 24.1871 492.9 36.4963C491.545 40.407 490.151 44.2738 488.72 48.094Z" fill="#59A33E"></path><rect x="30.3564px" height="5.05479" id="Rectangle" y="313.397003px" width="445.228" fill="black"></rect><path d="M309.837,298.233 L283.127,240.162 H277.079 L249.319,298.233 H258.81 L266.286,282.708 H288.418 L295.558,298.233 H309.837 M76.2676,246.204 V241.337 H33.7246 V298.233 H76.2676 V292.401 H47.7096 V269.827 H71.4379 V264.96 H47.7096 V246.204 H76.2676 M100.296,241.337 H86.6888 V298.233 H95.5502 V260.722 L114.785,298.233 H120.16 L138.765,261.141 V298.233 H152.708 V241.337 H139.395 L119.992,280.191 L100.296,241.337 M168.547,241.337 H182.49 V298.233 H168.547 V241.337 M219.705,241.337 H198.287 V298.233 H212.272 V272.512 H214.75 L233.858,298.233 H249.061 L228.777,271.002 C230.708,270.386 232.479,269.61 234.089,268.673 C235.699,267.736 237.071,266.659 238.205,265.442 C239.339,264.225 240.221,262.897 240.851,261.456 C241.481,260.016 241.796,258.484 241.796,256.862 C241.796,254.624 241.334,252.554 240.41,250.652 C239.486,248.75 238.107,247.106 236.273,245.722 C234.439,244.337 232.143,243.26 229.386,242.491 C226.628,241.722 223.401,241.337 219.705,241.337 M212.272,267.519 H215.296 C217.003,267.519 218.585,267.281 220.041,266.806 C221.497,266.33 222.757,265.652 223.821,264.771 C224.885,263.89 225.718,262.806 226.32,261.519 C226.922,260.232 227.223,258.778 227.223,257.155 C227.223,255.645 226.992,254.26 226.53,253.001 C226.068,251.743 225.431,250.659 224.619,249.75 C223.807,248.841 222.827,248.134 221.679,247.631 C220.531,247.127 219.285,246.876 217.941,246.876 H212.272 V267.519 M268.932,277.421 H286.066 L277.625,259.044 L268.932,277.421 M367.631,246.204 V241.337 H314.252 V246.204 H333.991 V298.233 H347.934 V246.204 H367.631 M420.847,241.337 V246.204 H392.289 V264.96 H416.017 V269.827 H392.289 V292.401 H420.847 V298.233 H378.304 V241.337 H420.847 M442.544,297.876 C445.106,298.674 448.095,299.072 451.51,299.072 C455.15,299.072 458.363,298.653 461.149,297.813 C463.935,296.974 466.265,295.82 468.141,294.352 C470.017,292.883 471.431,291.156 472.383,289.17 C473.335,287.184 473.811,285.03 473.811,282.708 C473.811,280.75 473.363,278.988 472.467,277.421 C471.571,275.855 470.388,274.428 468.918,273.142 C467.448,271.855 465.775,270.673 463.9,269.596 C462.024,268.519 460.113,267.491 458.167,266.512 C456.221,265.533 454.31,264.561 452.434,263.596 C450.559,262.631 448.886,261.617 447.416,260.554 C445.946,259.491 444.763,258.344 443.867,257.113 C442.971,255.883 442.523,254.512 442.523,253.001 C442.523,252.134 442.691,251.246 443.027,250.337 C443.363,249.428 443.909,248.603 444.665,247.862 C445.421,247.12 446.422,246.512 447.668,246.036 C448.914,245.561 450.447,245.323 452.266,245.323 C454.198,245.323 455.864,245.596 457.264,246.141 C458.664,246.687 459.854,247.421 460.834,248.344 C461.814,249.267 462.64,250.344 463.312,251.575 C463.984,252.806 464.572,254.092 465.076,255.435 H473.853 C473.209,253.309 472.285,251.316 471.081,249.456 C469.877,247.596 468.386,245.973 466.608,244.589 C464.831,243.204 462.78,242.12 460.456,241.337 C458.132,240.554 455.542,240.162 452.686,240.162 C449.215,240.162 446.121,240.561 443.405,241.358 C440.689,242.155 438.393,243.26 436.518,244.673 C434.642,246.085 433.207,247.75 432.213,249.666 C431.219,251.582 430.722,253.673 430.722,255.939 C430.722,258.009 431.156,259.848 432.024,261.456 C432.892,263.065 434.04,264.505 435.468,265.778 C436.896,267.051 438.519,268.205 440.339,269.24 C442.159,270.275 444.021,271.261 445.925,272.198 C447.829,273.135 449.691,274.065 451.51,274.988 C453.33,275.911 454.954,276.911 456.382,277.988 C457.81,279.065 458.958,280.261 459.826,281.575 C460.694,282.89 461.128,284.387 461.128,286.065 C461.128,287.408 460.848,288.534 460.288,289.443 C459.728,290.352 458.986,291.093 458.062,291.666 C457.138,292.24 456.095,292.652 454.933,292.904 C453.771,293.156 452.602,293.282 451.427,293.282 C449.635,293.282 448.06,293.023 446.702,292.506 C445.344,291.988 444.168,291.275 443.174,290.366 C442.18,289.457 441.361,288.387 440.717,287.156 C440.073,285.925 439.583,284.596 439.247,283.17 H429.546 C429.938,285.492 430.666,287.624 431.73,289.569 C432.794,291.513 434.222,293.184 436.014,294.583 C437.805,295.981 439.982,297.079 442.544,297.876 " id="EMIRATES" fill-rule="evenodd" fill="black" clip-rule="evenodd"></path><path d="M236.389,364.36 L222.249,333.616 H219.047 L204.351,364.36 H209.375 L213.333,356.141 H225.05 L228.83,364.36 H236.389 M42.8643,334.238 L50.5127,353.697 L58.1833,333.905 L65.9207,353.608 L73.3912,334.238 H78.3271 L66.4765,364.804 H63.1192 L56.9383,349.099 L50.8684,364.804 H47.5112 L35.416,334.238 H42.8643 M153.979,334.238 V336.815 H138.86 V346.744 H151.422 V349.321 H138.86 V361.272 H153.979 V364.36 H131.456 V334.238 H153.979 M214.734,353.342 H223.805 L219.336,343.612 L214.734,353.342 M297.145,334.238 H289.741 V364.36 H312.53 V361.272 H297.145 V334.238 M391.984,334.238 V336.815 H381.556 V364.36 H374.175 V336.815 H363.725 V334.238 H391.984 M453.362,364.36 V350.01 H465.479 V364.36 H472.816 V334.238 H465.479 V347.433 H453.362 V334.238 H445.958 V364.36 H453.362 " id="WEALTH" fill-rule="evenodd" fill="black" clip-rule="evenodd"></path><g id="logo"><path d="M490.762,227.466 C479.585,227.466 470.524,218.413 470.524,207.247 C470.524,196.08 479.585,187.027 490.762,187.027 C501.939,187.027 511,196.08 511,207.247 C511,218.413 501.939,227.466 490.762,227.466 M490.762,223.36 C499.67,223.36 506.89,216.146 506.89,207.247 C506.89,198.347 499.67,191.133 490.762,191.133 C481.855,191.133 474.634,198.347 474.634,207.247 C474.634,216.146 481.855,223.36 490.762,223.36 M487.351,209.361 V217.366 H481.886 V196.203 H490.228 C493.022,196.203 495.056,196.675 496.351,197.619 C497.665,198.543 498.302,200.021 498.302,202.053 C498.302,203.449 497.974,204.599 497.296,205.502 C496.618,206.384 495.611,207.062 494.234,207.472 C494.994,207.657 495.652,208.047 496.248,208.642 C496.844,209.238 497.439,210.141 498.035,211.372 L501.014,217.366 H495.2 L492.611,212.111 C492.098,211.065 491.563,210.326 491.029,209.956 C490.495,209.566 489.776,209.361 488.892,209.361 H487.351 M489.653,205.604 C490.783,205.604 491.604,205.379 492.098,204.947 C492.591,204.537 492.858,203.839 492.858,202.854 C492.858,201.889 492.591,201.212 492.098,200.78 C491.604,200.37 490.783,200.165 489.653,200.165 H487.351 V205.604 H489.653 " id="Combined Shape" fill-rule="evenodd" fill="black" clip-rule="evenodd"></path></g></g></g></svg>