<?xml version="1.0" encoding="UTF-8"?>
<svg width="101px" height="73px" viewBox="0 0 101 73" version="1.1" xmlns="http://www.w3.org/2000/svg" xmlns:xlink="http://www.w3.org/1999/xlink">
    <!-- Generator: Sketch 53.2 (72643) - https://sketchapp.com -->
    <title>EW</title>
    <desc>Created with Sketch.</desc>
    <g id="EMFEx" stroke="none" stroke-width="1" fill="none" fill-rule="evenodd">
        <g id="EW">
            <g id="Group-2" transform="translate(0.000000, 0.000000)">
                <path d="M48.4379838,28.5151405 L40.1318978,38.8728796 L34.0512155,37.7063185 L20.4242067,36.6508851 C18.6901671,35.2714507 16.9400928,33.5262092 15.2183494,31.4649844 L26.4474758,32.7423456 L13.111025,28.764292 C11.9524426,27.1796433 10.8157285,25.4562734 9.71515358,23.6102089 L26.6966422,28.711206 L8.39399455,21.3030378 C6.90761822,18.6011263 5.50232383,15.6745367 4.21648535,12.5663644 L30.2615548,25.0660351 L3.2847101,10.2269418 C2.90674425,9.24053548 2.54106652,8.23784127 2.18880578,7.2201269 C1.34593039,4.78498076 0.616807786,2.37055285 0,0 L34.0774396,20.6558812 L48.4379838,28.5151405 Z" id="Path" fill="#BF3C3C"></path>
                <polygon id="Path" fill="#000000" points="59.1718255 40 61.0647014 42.3604276 54 41.0050853 59.1718255 40"></polygon>
                <path d="M91.3712686,21.0215805 L43.2202277,37.5391176 L45.4147105,34.8025844 L95.5325745,12.2201461 L95.3946782,12.5663644 C94.1533602,15.5669203 92.8007151,18.3982499 91.3712673,21.0215811 L91.3712686,21.0215805 Z" id="Path" fill="#FFFFFF"></path>
                <path d="M86.5001386,28.764292 L73.1636878,32.7423456 L84.3928142,31.4649844 C82.6710707,33.5262092 80.9209965,35.2714507 79.1869569,36.6508851 L65.2194359,37.7063185 L39,42.8017669 L42.576103,38.3423451 L89.703614,23.9310704 C88.6631347,25.6562723 87.5913359,27.2718092 86.5001386,28.764292 Z" id="Path" fill="#000000"></path>
                <path d="M96.5962285,9.51452364 L46.3185657,33.6754715 L49.896389,29.2139044 L65.5337239,20.6558812 L99.6111636,0 C98.9943558,2.37055285 98.2652332,4.78498076 97.4223578,7.2201269 C97.1545698,7.99379169 96.879028,8.75877631 96.5962285,9.51452383 L96.5962285,9.51452364 Z" id="Path" fill="#59A33E"></path>
                <rect id="Rectangle" fill="#CCA776" x="6" y="62" width="88" height="1"></rect>
                <path d="M15.0745117,47.7441406 L15.0745117,48.7070312 L9.42998043,48.7070312 L9.42998043,52.4174805 L14.1199218,52.4174805 L14.1199218,53.3803711 L9.42998043,53.3803711 L9.42998043,57.8461914 L15.0745117,57.8461914 L15.0745117,59 L6.66582027,59 L6.66582027,47.7441406 L15.0745117,47.7441406 Z M17.1342773,47.7441406 L19.8237304,47.7441406 L23.7167968,55.4306641 L27.5517578,47.7441406 L30.1831054,47.7441406 L30.1831054,59 L27.4272461,59 L27.4272461,51.6621094 L23.75,59 L22.6875,59 L18.8857422,51.5791016 L18.8857422,59 L17.1342773,59 L17.1342773,47.7441406 Z M33.3136719,47.7441406 L36.0695312,47.7441406 L36.0695312,59 L33.3136719,59 L33.3136719,47.7441406 Z M39.1917969,47.7441406 L43.4251953,47.7441406 C44.1556677,47.7441406 44.793438,47.8202304 45.3385254,47.9724121 C45.8836127,48.1245939 46.3373842,48.3376451 46.6998535,48.6115723 C47.0623228,48.8854994 47.3348624,49.2106101 47.5174805,49.5869141 C47.7000986,49.963218 47.7914062,50.3727191 47.7914062,50.8154297 C47.7914062,51.1363948 47.729151,51.4393703 47.6046387,51.7243652 C47.4801263,52.0093601 47.3058117,52.2722156 47.0816894,52.5129395 C46.8575672,52.7536633 46.5864111,52.9667146 46.2682129,53.1520996 C45.9500147,53.3374847 45.6000019,53.4910476 45.2181641,53.612793 L49.2274414,59 L46.2225586,59 L42.4457031,53.9116211 L41.955957,53.9116211 L41.955957,59 L39.1917969,59 L39.1917969,47.7441406 Z M41.955957,52.9238281 L42.5536133,52.9238281 C42.8911801,52.9238281 43.2038397,52.8767908 43.4916016,52.7827148 C43.7793634,52.6886389 44.0283844,52.5544442 44.2386719,52.380127 C44.4489594,52.2058097 44.6135899,51.991375 44.7325684,51.7368164 C44.8515468,51.4822578 44.9110352,51.1945003 44.9110352,50.8735352 C44.9110352,50.5747055 44.8653813,50.3007825 44.7740723,50.0517578 C44.6827632,49.8027331 44.5568693,49.5882984 44.3963867,49.4084473 C44.2359041,49.2285961 44.0422212,49.0888677 43.815332,48.9892578 C43.5884429,48.8896479 43.3421888,48.8398438 43.0765625,48.8398438 L41.955957,48.8398438 L41.955957,52.9238281 Z M55.9605469,47.5117188 L61.2398438,59 L58.4175781,59 L57.0064453,55.9287109 L52.6319336,55.9287109 L51.1543945,59 L49.278418,59 L54.7652344,47.5117188 L55.9605469,47.5117188 Z M53.1548828,54.8828125 L56.5416016,54.8828125 L54.8731445,51.2470703 L53.1548828,54.8828125 Z M72.6628906,47.7441406 L72.6628906,48.7070312 L68.7698242,48.7070312 L68.7698242,59 L66.0139649,59 L66.0139649,48.7070312 L62.1125977,48.7070312 L62.1125977,47.7441406 L72.6628906,47.7441406 Z M83.1811524,47.7441406 L83.1811524,48.7070312 L77.5366211,48.7070312 L77.5366211,52.4174805 L82.2265625,52.4174805 L82.2265625,53.3803711 L77.5366211,53.3803711 L77.5366211,57.8461914 L83.1811524,57.8461914 L83.1811524,59 L74.772461,59 L74.772461,47.7441406 L83.1811524,47.7441406 Z M89.2418946,59.1660156 C88.566761,59.1660156 87.976028,59.087159 87.4696778,58.9294434 C86.9633276,58.7717277 86.5330747,58.5545261 86.1789063,58.277832 C85.8247379,58.0011379 85.5425141,57.6704935 85.3322266,57.2858887 C85.1219391,56.9012839 84.9780603,56.4793317 84.900586,56.0200195 L86.8180664,56.0200195 C86.884473,56.3022475 86.9813145,56.5651029 87.1085938,56.8085938 C87.2358731,57.0520846 87.3977367,57.2637524 87.5941895,57.4436035 C87.7906423,57.6234547 88.0230619,57.7645665 88.2914551,57.8669434 C88.5598484,57.9693202 88.8711246,58.0205078 89.225293,58.0205078 C89.457716,58.0205078 89.6887521,57.9956057 89.9184082,57.9458008 C90.1480643,57.8959958 90.3541983,57.8143723 90.5368164,57.7009277 C90.7194345,57.5874832 90.8660802,57.4408375 90.9767579,57.2609863 C91.0874355,57.0811352 91.1427735,56.8583998 91.1427735,56.5927734 C91.1427735,56.2607405 91.0569996,55.9646823 90.8854493,55.7045898 C90.7138989,55.4444974 90.4870132,55.2079275 90.2047852,54.994873 C89.9225572,54.7818186 89.6015969,54.5839853 89.2418946,54.4013672 C88.8821923,54.2187491 88.5141946,54.0347503 88.1378907,53.8493652 C87.7615867,53.6639802 87.3935891,53.4689138 87.0338868,53.2641602 C86.6741844,53.0594065 86.3532241,52.8311373 86.0709961,52.5793457 C85.7887682,52.3275541 85.5618824,52.0425634 85.3903321,51.7243652 C85.2187817,51.406167 85.1330079,51.0423198 85.1330079,50.6328125 C85.1330079,50.1845681 85.2312328,49.7709166 85.4276856,49.3918457 C85.6241384,49.0127748 85.9077456,48.6835138 86.2785157,48.4040527 C86.6492857,48.1245917 87.1030573,47.9060066 87.6398438,47.748291 C88.1766303,47.5905754 88.7881151,47.5117188 89.4743164,47.5117188 C90.0387724,47.5117188 90.5506488,47.5891919 91.009961,47.7441406 C91.4692732,47.8990893 91.8746239,48.113524 92.2260254,48.3874512 C92.5774269,48.6613783 92.8721017,48.9823387 93.1100586,49.3503418 C93.3480156,49.7183449 93.5306309,50.1126281 93.6579102,50.5332031 L91.9230469,50.5332031 C91.823437,50.2675768 91.7072273,50.0130221 91.5744141,49.7695312 C91.4416009,49.5260404 91.2783539,49.3129892 91.084668,49.1303711 C90.8909821,48.947753 90.6557957,48.8024908 90.3791016,48.6945801 C90.1024075,48.5866694 89.7731465,48.5327148 89.3913086,48.5327148 C89.0316063,48.5327148 88.7286308,48.5797521 88.4823731,48.6738281 C88.2361153,48.7679041 88.038282,48.8882642 87.8888672,49.0349121 C87.7394524,49.18156 87.6315433,49.344807 87.5651368,49.5246582 C87.4987302,49.7045094 87.4655274,49.8802075 87.4655274,50.0517578 C87.4655274,50.3505874 87.5540682,50.6217436 87.7311524,50.8652344 C87.9082366,51.1087252 88.1420396,51.3356109 88.4325684,51.5458984 C88.7230972,51.7561859 89.0537417,51.9567862 89.4245118,52.1477051 C89.7952818,52.338624 90.1729636,52.5309235 90.5575684,52.7246094 C90.9421732,52.9182952 91.319855,53.1216623 91.690625,53.3347168 C92.0613951,53.5477712 92.3920396,53.7815742 92.6825684,54.0361328 C92.9730972,54.2906914 93.2069002,54.5729151 93.3839844,54.8828125 C93.5610686,55.1927099 93.6496094,55.5413392 93.6496094,55.9287109 C93.6496094,56.3880231 93.5555348,56.8141256 93.3673829,57.2070312 C93.1792309,57.5999369 92.899774,57.9416489 92.5290039,58.2321777 C92.1582339,58.5227065 91.6975451,58.7509757 91.1469239,58.9169922 C90.5963026,59.0830086 89.9612992,59.1660156 89.2418946,59.1660156 Z" id="EMIRATES" fill="#CCA776" fill-rule="nonzero"></path>
                <path d="M8.47216797,66.1230469 L9.98388672,69.9726562 L11.5,66.0571289 L13.0292969,69.9550781 L14.5058594,66.1230469 L15.4814453,66.1230469 L13.1391602,72.1699219 L12.4755859,72.1699219 L11.2539062,69.0629883 L10.0541992,72.1699219 L9.390625,72.1699219 L7,66.1230469 L8.47216797,66.1230469 Z M30.4341211,66.1230469 L30.4341211,66.6328125 L27.4458399,66.6328125 L27.4458399,68.597168 L29.92875,68.597168 L29.92875,69.1069336 L27.4458399,69.1069336 L27.4458399,71.4711914 L30.4341211,71.4711914 L30.4341211,72.0820312 L25.982461,72.0820312 L25.982461,66.1230469 L30.4341211,66.1230469 Z M43.9278126,66 L46.7227345,72.0820312 L45.2285938,72.0820312 L44.4815235,70.4560547 L42.1656055,70.4560547 L41.383379,72.0820312 L40.3902149,72.0820312 L43.2950001,66 L43.9278126,66 Z M42.442461,69.9023438 L44.2354298,69.9023438 L43.352129,67.9775391 L42.442461,69.9023438 Z M57.2676954,66.1230469 L58.7310743,66.1230469 L58.7310743,71.4711914 L61.77209,71.4711914 L61.77209,72.0820312 L57.2676954,72.0820312 L57.2676954,66.1230469 Z M77.4762306,66.1230469 L77.4762306,66.6328125 L75.4151955,66.6328125 L75.4151955,72.0820312 L73.9562111,72.0820312 L73.9562111,66.6328125 L71.8907814,66.6328125 L71.8907814,66.1230469 L77.4762306,66.1230469 Z M89.6076174,69.2431641 L89.6076174,72.0820312 L88.1442385,72.0820312 L88.1442385,66.1230469 L89.6076174,66.1230469 L89.6076174,68.7333984 L92.0026369,68.7333984 L92.0026369,66.1230469 L93.4528322,66.1230469 L93.4528322,72.0820312 L92.0026369,72.0820312 L92.0026369,69.2431641 L89.6076174,69.2431641 Z" id="WEALTH" fill="#CCA776" fill-rule="nonzero"></path>
                <g id="logo" transform="translate(93.000000, 37.000000)" fill="#CCA776" fill-rule="nonzero">
                    <path d="M4,8 C1.790861,8 0,6.209139 0,4 C0,1.790861 1.790861,0 4,0 C6.209139,0 8,1.790861 8,4 C8,6.209139 6.209139,8 4,8 Z M4,7.18781726 C5.76058286,7.18781726 7.18781726,5.76058286 7.18781726,4 C7.18781726,2.23941714 5.76058286,0.812182741 4,0.812182741 C2.23941714,0.812182741 0.812182741,2.23941714 0.812182741,4 C0.812182741,5.76058286 2.23941714,7.18781726 4,7.18781726 Z M3.78071066,3.6751269 C4.00406091,3.6751269 4.16649746,3.63045685 4.26395939,3.54517766 C4.36142132,3.46395939 4.4142132,3.32588832 4.4142132,3.13096447 C4.4142132,2.94010152 4.36142132,2.80609137 4.26395939,2.72081218 C4.16649746,2.63959391 4.00406091,2.59898477 3.78071066,2.59898477 L3.32588832,2.59898477 L3.32588832,3.6751269 L3.78071066,3.6751269 Z M3.32588832,4.41827411 L3.32588832,6.00203046 L2.24568528,6.00203046 L2.24568528,1.81522843 L3.89441624,1.81522843 C4.44670051,1.81522843 4.84873096,1.90862944 5.10456853,2.09543147 C5.36446701,2.27817259 5.49035533,2.57055838 5.49035533,2.97258883 C5.49035533,3.24873096 5.42538071,3.47614213 5.29137056,3.65482234 C5.15736041,3.82944162 4.95837563,3.96345178 4.68629442,4.04467005 C4.83654822,4.08121827 4.96649746,4.15837563 5.08426396,4.27614213 C5.20203046,4.39390863 5.31979695,4.57258883 5.43756345,4.81624365 L6.02639594,6.00203046 L4.87715736,6.00203046 L4.36548223,4.96243655 C4.26395939,4.75532995 4.15837563,4.60913706 4.05279188,4.53604061 C3.94720812,4.45888325 3.80507614,4.41827411 3.63045685,4.41827411 L3.32588832,4.41827411 Z" id="Combined-Shape"></path>
                </g>
            </g>
        </g>
    </g>
</svg>