<?xml version="1.0" encoding="UTF-8"?>
<svg width="296px" height="212px" viewBox="0 0 296 212" version="1.1" xmlns="http://www.w3.org/2000/svg" xmlns:xlink="http://www.w3.org/1999/xlink">
    <!-- Generator: sketchtool 52.1 (67048) - http://www.bohemiancoding.com/sketch -->
    <title>97D22A64-6914-4ED9-8AB6-CB4AC3CA47C9</title>
    <desc>Created with sketchtool.</desc>
    <defs>
        <path d="M142.250381,83.9429761 L117.85746,114.434127 L100,111 L59.9808446,107.893011 C54.8883992,103.832227 49.7488639,98.6945787 44.692529,92.6267375 L77.6696967,96.3870381 L38.5038383,84.6764294 C35.1013685,80.0115347 31.7631203,74.9382719 28.5310038,69.5038204 L78.4014367,84.5201546 L24.6510864,62.7119615 C20.2859667,54.7580644 16.1589645,46.1427592 12.3827748,36.9929101 L88.8707036,73.789487 L9.64638135,30.1061092 C8.5363891,27.2023226 7.46248404,24.2505876 6.42798134,21.2546363 C3.95266475,14.0860441 1.81141195,6.97844226 0,0 L100.077014,60.8068595 L142.250381,83.9429761 Z M172.441091,119.051364 L178,126 L157.252719,122.010138 L172.441091,119.051364 Z M191.922986,60.8068595 L292,0 C290.188588,6.97844226 288.047335,14.0860441 285.572019,21.2546363 C284.537516,24.2505876 283.463611,27.2023226 282.353619,30.1061092 L203,68.531753 L279.617225,36.9929101 C275.841035,46.1427592 271.714033,54.7580644 267.348914,62.7119615 L209.581377,87.0093876 L263.468996,69.5038204 C260.23688,74.9382719 256.898632,80.0115347 253.496162,84.6764294 L214.330303,96.3870381 L247.307471,92.6267375 C242.251136,98.6945787 237.111601,103.832227 232.019155,107.893011 L191,111 L114,126 L146,86 L191.922986,60.8068595 Z" id="path-1"></path>
    </defs>
    <g id="Symbols" stroke="none" stroke-width="1" fill="none" fill-rule="evenodd">
        <g id="EMIRATES-wealth">
            <g>
                <g id="Rectangle" transform="translate(161.000000, 0.000000)"></g>
                <path d="M21.7060547,196.433594 L25.4013672,205.84375 L29.1074219,196.272461 L32.8457031,205.800781 L36.4550781,196.433594 L38.8398438,196.433594 L33.1142578,211.214844 L31.4921875,211.214844 L28.5058594,203.620117 L25.5732422,211.214844 L23.9511719,211.214844 L18.1074219,196.433594 L21.7060547,196.433594 Z M84.135273,196.433594 L84.135273,197.679688 L76.8305855,197.679688 L76.8305855,202.481445 L82.8999214,202.481445 L82.8999214,203.727539 L76.8305855,203.727539 L76.8305855,209.506836 L84.135273,209.506836 L84.135273,211 L73.253437,211 L73.253437,196.433594 L84.135273,196.433594 Z M125.864296,196.132812 L132.696327,211 L129.043983,211 L127.217812,207.025391 L121.556679,207.025391 L119.644569,211 L117.216835,211 L124.317421,196.132812 L125.864296,196.132812 Z M122.233437,205.671875 L126.616249,205.671875 L124.457069,200.966797 L122.233437,205.671875 Z M167.217342,196.433594 L170.794491,196.433594 L170.794491,209.506836 L178.228085,209.506836 L178.228085,211 L167.217342,211 L167.217342,196.433594 Z M225.360428,196.433594 L225.360428,197.679688 L220.322342,197.679688 L220.322342,211 L216.755936,211 L216.755936,197.679688 L211.707108,197.679688 L211.707108,196.433594 L225.360428,196.433594 Z M263.759373,204.060547 L263.759373,211 L260.182224,211 L260.182224,196.433594 L263.759373,196.433594 L263.759373,202.814453 L269.613865,202.814453 L269.613865,196.433594 L273.158787,196.433594 L273.158787,211 L269.613865,211 L269.613865,204.060547 L263.759373,204.060547 Z" id="WEALTH" fill="#FFFFFF"></path>
                <path d="M42.9429881,142.734597 L42.9429881,145.601896 L26.1891842,145.601896 L26.1891842,156.739336 L40.103758,156.739336 L40.103758,159.630332 L26.1891842,159.630332 L26.1891842,173.018957 L42.9429881,173.018957 L42.9429881,176.478673 L18,176.478673 L18,142.734597 L42.9429881,142.734597 Z M49.7477544,142.734597 L57.7257562,142.734597 L69.2703941,165.791469 L80.6742438,142.734597 L88.4879927,142.734597 L88.4879927,176.478673 L80.2988084,176.478673 L80.2988084,154.488152 L69.3877177,176.478673 L66.2199817,176.478673 L54.9334555,154.227488 L54.9334555,176.478673 L49.7477544,176.478673 L49.7477544,142.734597 Z M97.0526123,142.734597 L105.241797,142.734597 L105.241797,176.478673 L97.0526123,176.478673 L97.0526123,142.734597 Z M113.806416,142.734597 L126.360037,142.734597 C128.518801,142.734597 130.411602,142.963663 132.038497,143.421801 C133.665392,143.879939 135.01851,144.519743 136.097892,145.341232 C137.177274,146.162721 137.986798,147.134276 138.526489,148.255924 C139.066181,149.377573 139.336022,150.601889 139.336022,151.92891 C139.336022,152.876782 139.152217,153.781196 138.784601,154.64218 C138.416986,155.503164 137.896856,156.293045 137.224198,157.011848 C136.55154,157.730651 135.745926,158.370455 134.807333,158.93128 C133.86874,159.492104 132.828481,159.954185 131.686526,160.317536 L143.583135,176.478673 L134.690009,176.478673 L123.450412,161.194313 L121.9956,161.194313 L121.9956,176.478673 L113.806416,176.478673 L113.806416,142.734597 Z M121.9956,158.279621 L123.778918,158.279621 C124.780084,158.279621 125.706931,158.137442 126.559487,157.853081 C127.412042,157.568719 128.151173,157.16193 128.776902,156.632701 C129.402631,156.103473 129.895385,155.45577 130.255179,154.689573 C130.614973,153.923377 130.794867,153.058457 130.794867,152.094787 C130.794867,151.210106 130.657991,150.396528 130.384235,149.654028 C130.110478,148.911529 129.731136,148.267775 129.246196,147.722749 C128.761256,147.177722 128.186377,146.755136 127.52154,146.454976 C126.856703,146.154817 126.125394,146.004739 125.327589,146.004739 L121.9956,146.004739 L121.9956,158.279621 Z M163.03538,142 L178.686343,176.478673 L170.309441,176.478673 L166.132722,167.260664 L153.156737,167.260664 L148.768836,176.478673 L143.184235,176.478673 L159.492209,142 L163.03538,142 Z M154.681943,164.109005 L164.748304,164.109005 L159.79725,153.208531 L154.681943,164.109005 Z M211.79505,142.734597 L211.79505,145.601896 L200.226948,145.601896 L200.226948,176.478673 L192.037764,176.478673 L192.037764,145.601896 L180.469661,145.601896 L180.469661,142.734597 L211.79505,142.734597 Z M242.604216,142.734597 L242.604216,145.601896 L225.850412,145.601896 L225.850412,156.739336 L239.764986,156.739336 L239.764986,159.630332 L225.850412,159.630332 L225.850412,173.018957 L242.604216,173.018957 L242.604216,176.478673 L217.661228,176.478673 L217.661228,142.734597 L242.604216,142.734597 Z M260.883226,177 C258.880894,177 257.12888,176.763036 255.627131,176.2891 C254.125382,175.815164 252.846568,175.159562 251.790651,174.322275 C250.734733,173.484988 249.897834,172.489737 249.279927,171.336493 C248.66202,170.183249 248.235748,168.919438 248.0011,167.545024 L253.67956,167.545024 C253.882922,168.382311 254.172317,169.168243 254.547754,169.902844 C254.923192,170.637444 255.400303,171.273299 255.979102,171.810427 C256.557901,172.347554 257.246192,172.770141 258.043996,173.078199 C258.841801,173.386257 259.764737,173.540284 260.812832,173.540284 C261.516777,173.540284 262.208979,173.465246 262.889459,173.315166 C263.569939,173.165086 264.180016,172.924172 264.719707,172.592417 C265.259398,172.260662 265.693491,171.822278 266.021998,171.277251 C266.350506,170.732225 266.514757,170.064775 266.514757,169.274882 C266.514757,168.263818 266.260559,167.371252 265.752154,166.597156 C265.243749,165.823061 264.571101,165.116117 263.734189,164.476303 C262.897277,163.83649 261.943055,163.240129 260.871494,162.687204 C259.799934,162.134278 258.708835,161.577412 257.598167,161.016588 C256.487498,160.455763 255.3964,159.871251 254.32484,159.263033 C253.253279,158.654815 252.299057,157.971568 251.462145,157.21327 C250.625233,156.454973 249.952584,155.6019 249.44418,154.654028 C248.935775,153.706156 248.681577,152.61612 248.681577,151.383886 C248.681577,150.041068 248.970972,148.797004 249.549771,147.651659 C250.12857,146.506313 250.96938,145.515012 252.072227,144.677725 C253.175074,143.840438 254.524282,143.184836 256.11989,142.7109 C257.715498,142.236964 259.530085,142 261.563703,142 C263.253171,142 264.778362,142.236964 266.139322,142.7109 C267.500282,143.184836 268.700881,143.82859 269.741155,144.64218 C270.781429,145.45577 271.657436,146.415476 272.369203,147.521327 C273.080969,148.627178 273.624563,149.819899 274,151.099526 L268.837764,151.099526 C268.540542,150.293835 268.196397,149.52765 267.805316,148.800948 C267.414236,148.074246 266.929303,147.434442 266.350504,146.881517 C265.771705,146.328591 265.075592,145.890207 264.262145,145.566351 C263.448697,145.242494 262.471011,145.080569 261.329056,145.080569 C260.265317,145.080569 259.365845,145.222747 258.630614,145.507109 C257.895383,145.791471 257.300949,146.150867 256.847296,146.585308 C256.393643,147.019749 256.069051,147.505527 255.873511,148.042654 C255.67797,148.579782 255.580202,149.109002 255.580202,149.630332 C255.580202,150.53081 255.842222,151.348338 256.366269,152.082938 C256.890317,152.817539 257.58643,153.496837 258.454629,154.120853 C259.322827,154.744869 260.304425,155.345179 261.39945,155.921801 C262.494475,156.498423 263.61686,157.078986 264.766636,157.663507 C265.916413,158.248028 267.042708,158.856237 268.145555,159.488152 C269.248401,160.120066 270.233909,160.819111 271.102108,161.585308 C271.970307,162.351505 272.66642,163.200627 273.190467,164.132701 C273.714515,165.064776 273.976535,166.115318 273.976535,167.28436 C273.976535,168.658775 273.694962,169.934433 273.131806,171.111374 C272.56865,172.288316 271.735661,173.315161 270.632814,174.191943 C269.529967,175.068725 268.161206,175.755922 266.526489,176.253555 C264.891773,176.751187 263.010704,177 260.883226,177 Z" id="EMIRATES" fill="#FFFFFF"></path>
                <g id="Rectangle-2" transform="translate(0.000000, 3.000000)">
                    <mask id="mask-2" fill="white">
                        <use xlink:href="#path-1"></use>
                    </mask>
                    <use id="Mask" fill="#BF3C3C" xlink:href="#path-1"></use>
                    <polygon id="Rectangle-3" fill="#579B42" mask="url(#mask-2)" points="144.468425 80.6204722 299.199067 -7.11251409 289.196064 31.2437212 131.530232 102"></polygon>
                    <polygon id="Rectangle-3" fill="#FFFFFF" mask="url(#mask-2)" points="131.743467 101.721993 284.739231 30.7282599 275.280151 70.6612753 118.611123 116.821004"></polygon>
                    <polygon id="Rectangle-3" fill="#303030" mask="url(#mask-2)" points="120.545142 116.31074 265.976365 68.3659243 231.501748 121.536063 104.644345 133.591304"></polygon>
                </g>
                <rect id="Rectangle" fill="#FFFFFF" x="18" y="186" width="257" height="1"></rect>
            </g>
        </g>
    </g>
</svg>