<svg width="511" height="365" viewBox="0 0 511 365" fill="none" xmlns="http://www.w3.org/2000/svg">
<g id="EW">
<g id="Group 2">
<path id="Path" fill-rule="evenodd" clip-rule="evenodd" d="M245.067 144.138L203.044 196.494L172.279 190.598L103.334 185.263C94.5611 178.29 85.7068 169.468 76.9958 159.049L133.809 165.506L66.334 145.398C60.4723 137.388 54.7212 128.676 49.1529 119.345L135.069 145.129L42.4686 107.682C34.9484 94.0249 27.8385 79.2316 21.3329 63.5204L153.105 126.704L16.6187 51.6951C14.7064 46.709 12.8563 41.6406 11.0741 36.4963C6.80961 24.1871 3.12068 11.9827 0 0L172.412 104.411L245.067 144.138Z" fill="#BF3C3C"/>
<path id="Path_2" fill-rule="evenodd" clip-rule="evenodd" d="M299.374 202.192L308.951 214.123L273.208 207.272L299.374 202.192V202.192Z" fill="black"/>
<path id="Path_3" fill-rule="evenodd" clip-rule="evenodd" d="M462.285 106.26L218.669 189.753L229.772 175.92L483.338 61.7705L482.641 63.5206C476.36 78.6878 469.517 92.9996 462.285 106.26V106.26Z" fill="white"/>
<path id="Path_4" fill-rule="evenodd" clip-rule="evenodd" d="M437.639 145.398L370.164 165.506L426.977 159.049C418.266 169.468 409.412 178.29 400.639 185.263L329.971 190.598L197.316 216.354L215.409 193.813L453.847 120.967C448.582 129.687 443.16 137.854 437.639 145.398Z" fill="black"/>
<path id="Path_5" fill-rule="evenodd" clip-rule="evenodd" d="M488.72 48.094L234.345 170.223L252.446 147.67L331.562 104.411L503.974 0C500.853 11.9827 497.164 24.1871 492.9 36.4963C491.545 40.407 490.151 44.2738 488.72 48.094Z" fill="#59A33E"/>
<rect id="Rectangle" x="30.3564" y="313.397" width="445.228" height="5.05479" fill="white"/>
<path id="EMIRATES" fill-rule="evenodd" clip-rule="evenodd" d="M309.837 298.233L283.127 240.162H277.079L249.319 298.233H258.81L266.286 282.708H288.418L295.558 298.233H309.837ZM76.2676 246.204V241.337H33.7246V298.233H76.2676V292.401H47.7096V269.827H71.4379V264.96H47.7096V246.204H76.2676ZM100.296 241.337H86.6888V298.233H95.5502V260.722L114.785 298.233H120.16L138.765 261.141V298.233H152.708V241.337H139.395L119.992 280.191L100.296 241.337ZM168.547 241.337H182.49V298.233H168.547V241.337ZM219.705 241.337H198.287V298.233H212.272V272.512H214.75L233.858 298.233H249.061L228.777 271.002C230.708 270.386 232.479 269.61 234.089 268.673C235.699 267.736 237.071 266.659 238.205 265.442C239.339 264.225 240.221 262.897 240.851 261.456C241.481 260.016 241.796 258.484 241.796 256.862C241.796 254.624 241.334 252.554 240.41 250.652C239.486 248.75 238.107 247.106 236.273 245.722C234.439 244.337 232.143 243.26 229.386 242.491C226.628 241.722 223.401 241.337 219.705 241.337ZM212.272 267.519H215.296C217.003 267.519 218.585 267.281 220.041 266.806C221.497 266.33 222.757 265.652 223.821 264.771C224.885 263.89 225.718 262.806 226.32 261.519C226.922 260.232 227.223 258.778 227.223 257.155C227.223 255.645 226.992 254.26 226.53 253.001C226.068 251.743 225.431 250.659 224.619 249.75C223.807 248.841 222.827 248.134 221.679 247.631C220.531 247.127 219.285 246.876 217.941 246.876H212.272V267.519ZM268.932 277.421H286.066L277.625 259.044L268.932 277.421ZM367.631 246.204V241.337H314.252V246.204H333.991V298.233H347.934V246.204H367.631ZM420.847 241.337V246.204H392.289V264.96H416.017V269.827H392.289V292.401H420.847V298.233H378.304V241.337H420.847ZM442.544 297.876C445.106 298.674 448.095 299.072 451.51 299.072C455.15 299.072 458.363 298.653 461.149 297.813C463.935 296.974 466.265 295.82 468.141 294.352C470.017 292.883 471.431 291.156 472.383 289.17C473.335 287.184 473.811 285.03 473.811 282.708C473.811 280.75 473.363 278.988 472.467 277.421C471.571 275.855 470.388 274.428 468.918 273.142C467.448 271.855 465.775 270.673 463.9 269.596C462.024 268.519 460.113 267.491 458.167 266.512C456.221 265.533 454.31 264.561 452.434 263.596C450.559 262.631 448.886 261.617 447.416 260.554C445.946 259.491 444.763 258.344 443.867 257.113C442.971 255.883 442.523 254.512 442.523 253.001C442.523 252.134 442.691 251.246 443.027 250.337C443.363 249.428 443.909 248.603 444.665 247.862C445.421 247.12 446.422 246.512 447.668 246.036C448.914 245.561 450.447 245.323 452.266 245.323C454.198 245.323 455.864 245.596 457.264 246.141C458.664 246.687 459.854 247.421 460.834 248.344C461.814 249.267 462.64 250.344 463.312 251.575C463.984 252.806 464.572 254.092 465.076 255.435H473.853C473.209 253.309 472.285 251.316 471.081 249.456C469.877 247.596 468.386 245.973 466.608 244.589C464.831 243.204 462.78 242.12 460.456 241.337C458.132 240.554 455.542 240.162 452.686 240.162C449.215 240.162 446.121 240.561 443.405 241.358C440.689 242.155 438.393 243.26 436.518 244.673C434.642 246.085 433.207 247.75 432.213 249.666C431.219 251.582 430.722 253.673 430.722 255.939C430.722 258.009 431.156 259.848 432.024 261.456C432.892 263.065 434.04 264.505 435.468 265.778C436.896 267.051 438.519 268.205 440.339 269.24C442.159 270.275 444.021 271.261 445.925 272.198C447.829 273.135 449.691 274.065 451.51 274.988C453.33 275.911 454.954 276.911 456.382 277.988C457.81 279.065 458.958 280.261 459.826 281.575C460.694 282.89 461.128 284.387 461.128 286.065C461.128 287.408 460.848 288.534 460.288 289.443C459.728 290.352 458.986 291.093 458.062 291.666C457.138 292.24 456.095 292.652 454.933 292.904C453.771 293.156 452.602 293.282 451.427 293.282C449.635 293.282 448.06 293.023 446.702 292.506C445.344 291.988 444.168 291.275 443.174 290.366C442.18 289.457 441.361 288.387 440.717 287.156C440.073 285.925 439.583 284.596 439.247 283.17H429.546C429.938 285.492 430.666 287.624 431.73 289.569C432.794 291.513 434.222 293.184 436.014 294.583C437.805 295.981 439.982 297.079 442.544 297.876Z" fill="white"/>
<path id="WEALTH" fill-rule="evenodd" clip-rule="evenodd" d="M236.389 364.36L222.249 333.616H219.047L204.351 364.36H209.375L213.333 356.141H225.05L228.83 364.36H236.389ZM42.8643 334.238L50.5127 353.697L58.1833 333.905L65.9207 353.608L73.3912 334.238H78.3271L66.4765 364.804H63.1192L56.9383 349.099L50.8684 364.804H47.5112L35.416 334.238H42.8643ZM153.979 334.238V336.815H138.86V346.744H151.422V349.321H138.86V361.272H153.979V364.36H131.456V334.238H153.979ZM214.734 353.342H223.805L219.336 343.612L214.734 353.342ZM297.145 334.238H289.741V364.36H312.53V361.272H297.145V334.238ZM391.984 334.238V336.815H381.556V364.36H374.175V336.815H363.725V334.238H391.984ZM453.362 364.36V350.01H465.479V364.36H472.816V334.238H465.479V347.433H453.362V334.238H445.958V364.36H453.362Z" fill="white"/>
<g id="logo">
<path id="Combined Shape" fill-rule="evenodd" clip-rule="evenodd" d="M490.762 227.466C479.585 227.466 470.524 218.413 470.524 207.247C470.524 196.08 479.585 187.027 490.762 187.027C501.939 187.027 511 196.08 511 207.247C511 218.413 501.939 227.466 490.762 227.466ZM490.762 223.36C499.67 223.36 506.89 216.146 506.89 207.247C506.89 198.347 499.67 191.133 490.762 191.133C481.855 191.133 474.634 198.347 474.634 207.247C474.634 216.146 481.855 223.36 490.762 223.36ZM487.351 209.361V217.366H481.886V196.203H490.228C493.022 196.203 495.056 196.675 496.351 197.619C497.665 198.543 498.302 200.021 498.302 202.053C498.302 203.449 497.974 204.599 497.296 205.502C496.618 206.384 495.611 207.062 494.234 207.472C494.994 207.657 495.652 208.047 496.248 208.642C496.844 209.238 497.439 210.141 498.035 211.372L501.014 217.366H495.2L492.611 212.111C492.098 211.065 491.563 210.326 491.029 209.956C490.495 209.566 489.776 209.361 488.892 209.361H487.351ZM489.653 205.604C490.783 205.604 491.604 205.379 492.098 204.947C492.591 204.537 492.858 203.839 492.858 202.854C492.858 201.889 492.591 201.212 492.098 200.78C491.604 200.37 490.783 200.165 489.653 200.165H487.351V205.604H489.653Z" fill="white"/>
</g>
</g>
</g>
</svg>
