<?xml version="1.0" encoding="UTF-8"?>
<svg width="83px" height="63px" viewBox="0 0 83 63" version="1.1" xmlns="http://www.w3.org/2000/svg" xmlns:xlink="http://www.w3.org/1999/xlink">
    <!-- Generator: Sketch 53.2 (72643) - https://sketchapp.com -->
    <title>EW logo</title>
    <desc>Created with Sketch.</desc>
    <g id="EMFEx" stroke="none" stroke-width="1" fill="none" fill-rule="evenodd">
        <g id="Group-5">
            <g>
                <g id="Group-2" transform="translate(5.810000, 38.960526)" fill="#CCA776">
                    <rect id="Rectangle" x="0" y="14.0921053" width="72.21" height="1"></rect>
                    <g id="EMIRATES" fill-rule="nonzero">
                        <path d="M7.12265625,0.208233173 L7.12265625,1.07091346 L2.34140625,1.07091346 L2.34140625,4.39520733 L6.3140625,4.39520733 L6.3140625,5.25788762 L2.34140625,5.25788762 L2.34140625,9.2589393 L7.12265625,9.2589393 L7.12265625,10.2926683 L0,10.2926683 L0,0.208233173 L7.12265625,0.208233173 Z M8.61328125,0.208233173 L10.8914063,0.208233173 L14.1890625,7.09480168 L17.4375,0.208233173 L19.6664063,0.208233173 L19.6664063,10.2926683 L17.3320312,10.2926683 L17.3320312,3.71844952 L14.2171875,10.2926683 L13.3171875,10.2926683 L10.096875,3.64408053 L10.096875,10.2926683 L8.61328125,10.2926683 L8.61328125,0.208233173 Z M22.0640625,0.208233173 L24.3984375,0.208233173 L24.3984375,10.2926683 L22.0640625,10.2926683 L22.0640625,0.208233173 Z M26.7890625,0.208233173 L30.375,0.208233173 C30.9937531,0.208233173 31.5339821,0.276404066 31.9957031,0.412747897 C32.4574242,0.549091727 32.8417953,0.739970227 33.1488281,0.985389123 C33.4558609,1.23080802 33.686718,1.52208365 33.8414063,1.85922476 C33.9960945,2.19636587 34.0734375,2.56324922 34.0734375,2.95988582 C34.0734375,3.24744735 34.0207037,3.51889145 33.9152344,3.77422626 C33.8097651,4.02956107 33.6621103,4.26506052 33.4722656,4.48073167 C33.2824209,4.69640282 33.0527357,4.88728132 32.7832031,5.0533729 C32.5136705,5.21946447 32.2171891,5.35704573 31.89375,5.46612079 L35.2898438,10.2926683 L32.7445313,10.2926683 L29.5453125,5.73384916 L29.1304688,5.73384916 L29.1304688,10.2926683 L26.7890625,10.2926683 L26.7890625,0.208233173 Z M29.1304688,4.84885817 L29.6367188,4.84885817 C29.9226577,4.84885817 30.1874988,4.80671617 30.43125,4.72243089 C30.6750012,4.63814561 30.8859366,4.51791695 31.0640625,4.36174129 C31.2421884,4.20556563 31.3816401,4.01344765 31.4824219,3.78538161 C31.5832036,3.55731557 31.6335938,3.29950564 31.6335938,3.01194411 C31.6335938,2.74421441 31.5949223,2.49879919 31.5175781,2.27569111 C31.440234,2.05258302 31.3335944,1.86046505 31.1976563,1.69933143 C31.0617181,1.53819781 30.8976572,1.41301126 30.7054688,1.32376803 C30.5132803,1.23452479 30.3046886,1.18990385 30.0796875,1.18990385 L29.1304688,1.18990385 L29.1304688,4.84885817 Z M40.7390625,0 L45.2109375,10.2926683 L42.8203125,10.2926683 L41.625,7.54101562 L37.9195313,7.54101562 L36.6679688,10.2926683 L35.0789063,10.2926683 L39.7265625,0 L40.7390625,0 Z M38.3625,6.60396635 L41.23125,6.60396635 L39.8179687,3.34660457 L38.3625,6.60396635 Z M54.6328125,0.208233173 L54.6328125,1.07091346 L51.3351562,1.07091346 L51.3351562,10.2926683 L49.0007813,10.2926683 L49.0007813,1.07091346 L45.6960938,1.07091346 L45.6960938,0.208233173 L54.6328125,0.208233173 Z M63.2882813,0.208233173 L63.2882813,1.07091346 L58.5070313,1.07091346 L58.5070313,4.39520733 L62.4796875,4.39520733 L62.4796875,5.25788762 L58.5070313,5.25788762 L58.5070313,9.2589393 L63.2882813,9.2589393 L63.2882813,10.2926683 L56.165625,10.2926683 L56.165625,0.208233173 L63.2882813,0.208233173 Z M68.1679688,10.4414062 C67.5960909,10.4414062 67.0957053,10.3707564 66.6667969,10.2294546 C66.2378885,10.0881528 65.873439,9.89355593 65.5734375,9.64565805 C65.273436,9.39776018 65.0343759,9.10152666 64.85625,8.75694862 C64.6781241,8.41237057 64.5562503,8.03433199 64.490625,7.62282151 L66.1148438,7.62282151 C66.171094,7.87567735 66.2531245,8.11117679 66.3609375,8.32932692 C66.4687505,8.54747705 66.6058585,8.73711608 66.7722656,8.8982497 C66.9386727,9.05938332 67.1355457,9.18580934 67.3628906,9.27753155 C67.5902355,9.36925376 67.8539047,9.41511418 68.1539063,9.41511418 C68.3507822,9.41511418 68.5464834,9.39280371 68.7410156,9.34818209 C68.9355478,9.30356047 69.1101555,9.2304317 69.2648438,9.12879357 C69.419532,9.02715544 69.5437495,8.89577154 69.6375,8.73463792 C69.7312505,8.5735043 69.778125,8.37394951 69.778125,8.13596755 C69.778125,7.8384901 69.7054695,7.57324335 69.5601563,7.34021935 C69.414843,7.10719535 69.2226574,6.89524585 68.9835938,6.70436448 C68.7445301,6.51348312 68.4726578,6.3362388 68.1679688,6.1726262 C67.8632797,6.00901361 67.5515641,5.84416399 67.2328125,5.67807242 C66.9140609,5.51198084 66.6023453,5.33721546 66.2976563,5.15377103 C65.9929672,4.97032661 65.7210949,4.76581393 65.4820313,4.54022686 C65.2429676,4.3146398 65.050782,4.05930882 64.9054688,3.77422626 C64.7601555,3.48914371 64.6875,3.16316289 64.6875,2.79627404 C64.6875,2.39467948 64.7707023,2.02407772 64.9371094,1.68445763 C65.1035165,1.34483754 65.3437484,1.0498435 65.6578125,0.799466647 C65.9718766,0.549089794 66.3562477,0.353253411 66.8109375,0.211951623 C67.2656273,0.0706498344 67.7835908,0 68.3648438,0 C68.8429711,0 69.2765606,0.0694103636 69.665625,0.208233173 C70.0546894,0.347055983 70.3980454,0.539173953 70.6957031,0.784592849 C70.9933609,1.03001174 71.2429677,1.31756896 71.4445313,1.64727314 C71.6460948,1.97697731 71.8007807,2.33022648 71.9085938,2.70703125 L70.4390625,2.70703125 C70.3546871,2.46904929 70.2562506,2.24098667 70.14375,2.02283654 C70.0312494,1.80468641 69.8929696,1.61380791 69.7289063,1.45019531 C69.5648429,1.28658272 69.3656262,1.15643828 69.13125,1.05975811 C68.8968738,0.963077942 68.6179704,0.914738582 68.2945313,0.914738582 C67.9898422,0.914738582 67.7332042,0.956880588 67.5246094,1.04116587 C67.3160146,1.12545114 67.1484381,1.2332851 67.021875,1.36467097 C66.8953119,1.49605685 66.8039065,1.6423144 66.7476563,1.80344802 C66.691406,1.96458163 66.6632813,2.12199442 66.6632813,2.27569111 C66.6632813,2.54342081 66.7382805,2.78635708 66.8882813,3.00450721 C67.038282,3.22265734 67.2363269,3.42593055 67.4824219,3.61433293 C67.7285169,3.80273532 68.0085922,3.98245858 68.3226563,4.15350811 C68.6367203,4.32455765 68.956639,4.49684408 69.2824219,4.6703726 C69.6082048,4.84390111 69.9281234,5.02610331 70.2421875,5.21698468 C70.5562516,5.40786604 70.8363269,5.6173366 71.0824219,5.84540264 C71.3285169,6.07346869 71.5265617,6.32632073 71.6765625,6.60396635 C71.8265633,6.88161197 71.9015625,7.1939586 71.9015625,7.54101562 C71.9015625,7.9525261 71.8218758,8.3342831 71.6625,8.68629808 C71.5031242,9.03831306 71.2664078,9.34446234 70.9523438,9.60475511 C70.6382797,9.86504788 70.2480492,10.0695606 69.7816406,10.2182993 C69.315232,10.367038 68.7773468,10.4414062 68.1679688,10.4414062 Z"></path>
                    </g>
                    <path d="M1.57217717,18.2708419 L2.82690373,21.4619655 L4.08527775,18.2161994 L5.35459416,21.4473941 L6.58014103,18.2708419 L7.38987736,18.2708419 L5.44578068,23.283383 L4.89501408,23.283383 L3.88101994,20.7078986 L2.8852631,23.283383 L2.3344965,23.283383 L0.350277753,18.2708419 L1.57217717,18.2708419 Z M19.8005983,18.2708419 L19.8005983,18.6934108 L17.3203249,18.6934108 L17.3203249,20.3217581 L19.3811403,20.3217581 L19.3811403,20.7443269 L17.3203249,20.7443269 L17.3203249,22.7041722 L19.8005983,22.7041722 L19.8005983,23.2105263 L16.1057204,23.2105263 L16.1057204,18.2708419 L19.8005983,18.2708419 Z M31.0003622,18.1688425 L33.3201473,23.2105263 L32.0800106,23.2105263 L31.4599423,21.8626773 L29.5377304,21.8626773 L28.8884823,23.2105263 L28.0641561,23.2105263 L30.4751278,18.1688425 L31.0003622,18.1688425 Z M29.7675204,21.4036801 L31.2556845,21.4036801 L30.5225448,19.8081183 L29.7675204,21.4036801 Z M42.072465,18.2708419 L43.2870694,18.2708419 L43.2870694,22.7041722 L45.8111124,22.7041722 L45.8111124,23.2105263 L42.072465,23.2105263 L42.072465,18.2708419 Z M58.8455492,18.2708419 L58.8455492,18.6934108 L57.13489,18.6934108 L57.13489,23.2105263 L55.923933,23.2105263 L55.923933,18.6934108 L54.2096263,18.6934108 L54.2096263,18.2708419 L58.8455492,18.2708419 Z M68.9146002,20.8572548 L68.9146002,23.2105263 L67.6999957,23.2105263 L67.6999957,18.2708419 L68.9146002,18.2708419 L68.9146002,20.434686 L70.9024664,20.434686 L70.9024664,18.2708419 L72.1061285,18.2708419 L72.1061285,23.2105263 L70.9024664,23.2105263 L70.9024664,20.8572548 L68.9146002,20.8572548 Z" id="WEALTH" fill-rule="nonzero"></path>
                </g>
                <g id="Group-3">
                    <path d="M40.2035265,23.6375507 L33.3094752,32.2235713 L28.2625089,31.2565535 L16.9520915,30.3816548 C15.5128387,29.2381762 14.0602771,27.7914629 12.63123,26.082816 L21.9514049,27.1416812 L10.8821507,23.8440842 C9.92052737,22.5304938 8.97705468,21.1019108 8.06357747,19.5716205 L22.158213,23.8000787 L6.96701548,17.6590971 C5.73332312,15.4193547 4.56692878,12.993366 3.49968284,10.4168547 L25.1170905,20.7784238 L2.72630938,8.4775965 C2.41259773,7.65991757 2.10908521,6.82873684 1.8167088,5.9851052 C1.11712223,3.96649721 0.511950463,1.96506355 0,3.55271368e-15 L28.2842749,17.1226384 L40.2035265,23.6375507 Z" id="Path" fill="#BF3C3C"></path>
                    <polygon id="Path" fill="#303030" points="49.1126152 33.1578947 50.6837022 35.114565 44.82 33.9910576 49.1126152 33.1578947"></polygon>
                    <path d="M75.8381529,17.4257838 L35.872789,31.1179527 L37.6942097,28.8495107 L79.2920368,10.1298579 L79.1775829,10.4168547 C78.147289,12.9041576 77.0245935,15.2511809 75.8381519,17.4257843 L75.8381529,17.4257838 Z" id="Path" fill="#FFFFFF"></path>
                    <path d="M71.795115,23.8440842 L60.7258608,27.1416812 L70.0460358,26.082816 C68.6169887,27.7914629 67.1644271,29.2381762 65.7251742,30.3816548 L54.1321318,31.2565535 L32.37,35.4804121 L35.3381654,31.783786 L74.4539996,19.8375978 C73.5904018,21.2676994 72.7008088,22.6068945 71.795115,23.8440842 Z" id="Path" fill="#303030"></path>
                    <path d="M80.1748697,7.88703934 L38.4444096,27.9151935 L41.4140028,24.2167892 L54.3929909,17.1226384 L82.6772658,-3.55271368e-15 C82.1653153,1.96506355 81.5601435,3.96649721 80.860557,5.9851052 C80.6382929,6.62643259 80.4095933,7.26056458 80.1748697,7.88703949 L80.1748697,7.88703934 Z" id="Path" fill="#59A33E"></path>
                </g>
            </g>
        </g>
    </g>
</svg>