<svg width="240" height="76" viewBox="0 0 240 76" fill="none" xmlns="http://www.w3.org/2000/svg">
<g clip-path="url(#clip0_1509_121)">
<path d="M79.5127 52.8353L92.556 23.171H100.789L113.877 52.8353H105.182L94.9672 27.2817H98.258L88.0437 52.8353H79.519H79.5127ZM86.645 47.0282L88.7968 40.8844H103.232L105.384 47.0282H86.6387H86.645Z" fill="#1A1A1A"/>
<path d="M116.276 52.8353V23.171H123.156L135.357 43.3432H131.725L143.673 23.171H150.552L150.596 52.8353H142.914L142.831 34.9122H144.141L135.237 49.9127H131.522L122.364 34.9122H123.966V52.8353H116.283H116.276Z" fill="#1A1A1A"/>
<path d="M164.905 52.8353H156.545V23.171H179.676V29.696H164.899V52.8353H164.905ZM164.272 36.1829H177.904V42.6698H164.272V36.1829Z" fill="#1A1A1A"/>
<path d="M191.878 46.3039H207.326V52.8289H183.645V23.1647H206.776V29.6897H191.872V46.3039H191.878ZM191.29 34.6517H205.01V40.8781H191.29V34.6517Z" fill="#1A1A1A"/>
<path d="M208.68 52.8353L221.597 34.7788L221.553 40.7574L209.142 23.171H218.553L226.445 34.6581H222.477L230.286 23.171H239.279L226.913 40.4588V34.5246L240 52.8353H230.375L222.312 40.7574H226.153L218.217 52.8353H208.674H208.68Z" fill="#1A1A1A"/>
<path d="M85.0378 73.465C84.253 73.465 83.5189 73.3315 82.8228 73.0647C82.1266 72.7979 81.5887 72.4548 81.209 72.0291L81.5571 71.4573C81.9178 71.8321 82.4114 72.1434 83.038 72.3976C83.6645 72.6517 84.329 72.7851 85.0315 72.7851C85.7339 72.7851 86.3035 72.6898 86.7528 72.5056C87.2022 72.3213 87.5313 72.0736 87.7464 71.7559C87.9616 71.4446 88.0692 71.0951 88.0692 70.7139C88.0692 70.2628 87.949 69.9007 87.7085 69.6275C87.468 69.3543 87.1515 69.1383 86.7592 68.9794C86.3668 68.8206 85.9428 68.6808 85.4808 68.5728C85.0188 68.4648 84.5568 68.3441 84.0822 68.217C83.6075 68.0899 83.1835 67.9248 82.7911 67.7278C82.3988 67.5245 82.0887 67.2513 81.8545 66.9082C81.6203 66.5588 81.5001 66.114 81.5001 65.5613C81.5001 65.0594 81.633 64.5955 81.8925 64.1762C82.1519 63.7569 82.557 63.4138 83.1076 63.1533C83.6582 62.8928 84.367 62.7594 85.2276 62.7594C85.8099 62.7594 86.3795 62.842 86.949 63.0135C87.5186 63.1851 87.9996 63.4138 88.3983 63.7061L88.1135 64.3223C87.6705 64.0174 87.2022 63.795 86.6959 63.6489C86.1896 63.5028 85.7023 63.4329 85.234 63.4329C84.5631 63.4329 84.0062 63.5282 83.5696 63.7188C83.1266 63.9094 82.8038 64.1635 82.5949 64.4812C82.3861 64.7989 82.2785 65.1547 82.2785 65.5422C82.2785 65.9933 82.3988 66.3555 82.6329 66.6287C82.8671 66.9019 83.1835 67.1179 83.5696 67.2767C83.9556 67.4355 84.3923 67.5753 84.8606 67.6833C85.3289 67.7913 85.7972 67.912 86.2592 68.0391C86.7212 68.1662 87.1452 68.3314 87.5376 68.5283C87.93 68.7253 88.2464 68.9985 88.4869 69.3416C88.7274 69.6847 88.8476 70.1231 88.8476 70.6695C88.8476 71.165 88.7147 71.6225 88.4426 72.0481C88.1705 72.4738 87.7591 72.8169 87.2022 73.0711C86.6453 73.3252 85.9301 73.4586 85.0631 73.4586L85.0378 73.465Z" fill="#1A1A1A"/>
<path d="M104.207 72.6963H110.7V73.3888H103.441V62.8293H110.472V63.5219H104.207V72.6899V72.6963ZM104.119 67.6897H109.814V68.3696H104.119V67.6897Z" fill="#1A1A1A"/>
<path d="M125.51 73.3888V62.8293H129.282C130.161 62.8293 130.921 62.9691 131.547 63.2487C132.18 63.5282 132.661 63.9348 133.003 64.4622C133.345 64.9895 133.515 65.6312 133.515 66.3873C133.515 67.1433 133.345 67.7533 133.003 68.2806C132.661 68.8079 132.174 69.2146 131.547 69.5005C130.914 69.7864 130.161 69.9325 129.282 69.9325H125.934L126.282 69.5704V73.3888H125.516H125.51ZM126.276 69.6212L125.927 69.259H129.275C130.408 69.259 131.269 69.0113 131.851 68.503C132.44 68.0011 132.731 67.2958 132.731 66.3936C132.731 65.4914 132.44 64.7735 131.851 64.2716C131.262 63.776 130.408 63.5282 129.275 63.5282H125.927L126.276 63.1534V69.6212ZM132.813 73.3888L130.079 69.5577H130.952L133.686 73.3888H132.813Z" fill="#1A1A1A"/>
<path d="M151.292 73.3888L146.603 62.8293H147.444L151.919 72.9186H151.45L155.944 62.8293H156.741L152.051 73.3888H151.286H151.292Z" fill="#1A1A1A"/>
<path d="M170.462 73.3888V62.8293H171.228V73.3888H170.462Z" fill="#1A1A1A"/>
<path d="M191.359 73.465C190.581 73.465 189.853 73.3316 189.188 73.0647C188.524 72.7979 187.942 72.423 187.454 71.9401C186.967 71.4573 186.581 70.8918 186.315 70.2438C186.043 69.5957 185.91 68.8841 185.91 68.109C185.91 67.3339 186.043 66.6223 186.315 65.9743C186.587 65.3262 186.967 64.7607 187.467 64.2779C187.961 63.795 188.543 63.4202 189.201 63.1533C189.859 62.8865 190.581 62.7531 191.365 62.7531C192.15 62.7531 192.802 62.8738 193.448 63.1152C194.093 63.3566 194.644 63.7251 195.106 64.2143L194.625 64.7099C194.175 64.2652 193.675 63.9475 193.131 63.7505C192.587 63.5536 192.005 63.4583 191.397 63.4583C190.726 63.4583 190.1 63.5726 189.524 63.8077C188.948 64.0365 188.448 64.3668 188.024 64.7862C187.6 65.2055 187.264 65.7011 187.03 66.2665C186.796 66.832 186.676 67.4419 186.676 68.109C186.676 68.7761 186.796 69.3861 187.03 69.9515C187.264 70.517 187.594 71.0062 188.024 71.4319C188.448 71.8512 188.948 72.1816 189.524 72.4103C190.1 72.639 190.72 72.7597 191.397 72.7597C192.011 72.7597 192.587 72.6644 193.131 72.4675C193.675 72.2705 194.175 71.9465 194.625 71.4954L195.106 71.991C194.644 72.4865 194.093 72.855 193.448 73.0965C192.802 73.3443 192.106 73.465 191.365 73.465H191.359Z" fill="#1A1A1A"/>
<path d="M210.452 72.6963H216.945V73.3888H209.687V62.8293H216.718V63.5219H210.452V72.6899V72.6963ZM210.364 67.6897H216.059V68.3696H210.364V67.6897Z" fill="#1A1A1A"/>
<path d="M234.52 73.465C233.735 73.465 233.001 73.3315 232.305 73.0647C231.609 72.7979 231.071 72.4548 230.691 72.0291L231.039 71.4573C231.4 71.8321 231.894 72.1434 232.52 72.3976C233.147 72.6517 233.811 72.7851 234.514 72.7851C235.216 72.7851 235.786 72.6898 236.235 72.5056C236.685 72.3213 237.014 72.0736 237.229 71.7559C237.444 71.4446 237.552 71.0951 237.552 70.7139C237.552 70.2628 237.431 69.9007 237.191 69.6275C236.95 69.3543 236.634 69.1383 236.242 68.9794C235.849 68.8206 235.425 68.6808 234.963 68.5728C234.501 68.4648 234.039 68.3441 233.565 68.217C233.09 68.0899 232.666 67.9248 232.274 67.7278C231.881 67.5245 231.571 67.2513 231.337 66.9082C231.103 66.5588 230.983 66.114 230.983 65.5613C230.983 65.0594 231.115 64.5955 231.375 64.1762C231.634 63.7569 232.039 63.4138 232.59 63.1533C233.141 62.8928 233.849 62.7594 234.71 62.7594C235.292 62.7594 235.862 62.842 236.431 63.0135C237.001 63.1851 237.482 63.4138 237.881 63.7061L237.596 64.3223C237.153 64.0174 236.685 63.795 236.178 63.6489C235.672 63.5028 235.185 63.4329 234.716 63.4329C234.046 63.4329 233.489 63.5282 233.052 63.7188C232.609 63.9094 232.286 64.1635 232.077 64.4812C231.869 64.7989 231.761 65.1547 231.761 65.5422C231.761 65.9933 231.881 66.3555 232.115 66.6287C232.35 66.9019 232.666 67.1179 233.052 67.2767C233.438 67.4355 233.875 67.5753 234.343 67.6833C234.811 67.7913 235.28 67.912 235.742 68.0391C236.204 68.1662 236.628 68.3314 237.02 68.5283C237.412 68.7253 237.729 68.9985 237.969 69.3416C238.21 69.6847 238.33 70.1231 238.33 70.6695C238.33 71.165 238.197 71.6225 237.925 72.0481C237.653 72.4738 237.242 72.8169 236.685 73.0711C236.128 73.3252 235.413 73.4586 234.546 73.4586L234.52 73.465Z" fill="#1A1A1A"/>
<path d="M70.818 8.51362C72.185 9.59371 71.1534 11.7666 69.4574 11.3917C69.4321 11.3917 69.4067 11.379 69.3814 11.3727C64.4388 10.2989 59.5151 10.5531 54.9838 11.8937C49.0539 13.6536 43.7885 17.275 40.0167 22.2307C40.004 22.2434 39.9977 22.2561 39.985 22.2688C39.8015 22.4976 39.6243 22.739 39.4597 22.9868C39.4597 22.9868 39.4471 22.9995 39.4471 23.0058C38.7066 24.1241 38.1561 25.3947 37.8523 26.7861C36.9093 31.1446 38.6877 35.465 42.0418 37.9555C42.8772 38.5782 42.9278 39.8107 42.1494 40.4969C39.8521 42.5237 37.3207 44.2645 34.612 45.6813C29.7643 48.2163 24.3534 49.7094 18.7272 49.9381C17.5944 49.9826 16.4552 49.9763 15.3034 49.9191C15.2275 49.9191 15.1579 49.9064 15.0819 49.8937C14.987 49.8746 14.8857 49.8555 14.7908 49.8365C10.3038 48.858 7.11421 45.1476 6.58261 40.8209C6.57628 40.7574 6.56995 40.6939 6.56995 40.6303C6.55096 39.779 6.56995 38.9212 6.60792 38.0635C6.70918 35.8652 6.99397 33.6542 7.47494 31.4305C12.0126 10.4006 32.3084 -3.13226 53.2435 0.62263C53.7244 0.705225 54.2117 0.80688 54.6927 0.908535C60.7745 2.23005 66.2298 4.89215 70.8117 8.50727L70.818 8.51362Z" fill="#31D6D3"/>
<path d="M0.633303 67.4864C-0.733678 66.4063 0.297886 64.2334 1.99395 64.6083C2.01927 64.6083 2.04458 64.621 2.0699 64.6274C7.01254 65.7011 11.9362 65.447 16.4675 64.1064C22.3974 62.3465 27.6628 58.725 31.4347 53.7693C31.4473 53.7566 31.4536 53.7439 31.4663 53.7312C31.6498 53.5025 31.827 53.261 31.9916 53.0132C31.9916 53.0132 32.0042 53.0005 32.0042 52.9942C32.7447 51.876 33.2953 50.6053 33.599 49.2139C34.542 44.8554 32.7637 40.5351 29.4095 38.0445C28.5741 37.4219 28.5235 36.1893 29.3019 35.5031C31.5992 33.4764 34.1306 31.7355 36.8393 30.3187C41.687 27.7837 47.098 26.2906 52.7241 26.0619C53.8569 26.0174 54.9961 26.0238 56.1479 26.081C56.2238 26.081 56.2935 26.0937 56.3694 26.1064C56.4643 26.1254 56.5656 26.1445 56.6605 26.1636C61.1475 27.142 64.3371 30.8524 64.8687 35.1791C64.8751 35.2426 64.8814 35.3062 64.8814 35.3697C64.9004 36.2211 64.8814 37.0788 64.8434 37.9365C64.7421 40.1348 64.4574 42.3458 63.9764 44.5695C59.4388 65.6058 39.1366 79.1386 18.2015 75.3838C17.7206 75.3012 17.2333 75.1995 16.7523 75.0979C10.6705 73.7763 5.21522 71.1142 0.633303 67.4991V67.4864Z" fill="#1156F9"/>
<path d="M29.296 35.4968C28.5176 36.183 28.5682 37.4155 29.4036 38.0382C31.9477 39.9315 33.5868 42.8795 33.8146 46.0944C34.0804 45.9609 34.3526 45.8275 34.612 45.6877C37.3207 44.2709 39.8521 42.5301 42.1494 40.5033C42.9278 39.8171 42.8772 38.5846 42.0418 37.9619C39.4977 36.0686 37.8586 33.1206 37.6308 29.9058C37.365 30.0392 37.0928 30.1726 36.8334 30.3124C34.1247 31.7292 31.5933 33.47 29.296 35.4968Z" fill="#0697C4"/>
</g>
<defs>
<clipPath id="clip0_1509_121">
<rect width="240" height="76" fill="white"/>
</clipPath>
</defs>
</svg>
